Patient4_TMGait_0pt3_02_left_19_GRF.mot
version=1
nRows=58
nColumns=19
inDegrees=no
endheader
time	F1x	F1y	F1z	M1x	M1y	M1z	F2x	F2y	F2z	M2x	M2y	M2z	EC1x	EC1y	EC1z	EC2x	EC2y	EC2z
36.97	-0.61751	3.8332	-0.39997	-2.7367	1.631	7.6269	-19.1558	757.9887	-44.0272	269.0989	53.3417	746.7841	-0.0592	0.0182	-0.0073	-0.0462	0.0165	0.9585
36.9909	-0.53744	2.6876	-0.18161	-1.9197	0.97021	5.3449	-21.6288	756.7387	-45.9895	267.6044	55.5969	745.402	-0.0592	0.0182	-0.0073	-0.0462	0.0165	0.9585
37.0119	-0.47084	1.7316	-0.012828	-1.2163	0.42	3.4013	-23.8656	758.9842	-47.8273	267.336	57.7068	747.0183	-0.0592	0.0182	-0.0073	-0.0462	0.0165	0.9585
37.0328	-0.42967	1.0206	0.10774	-0.67402	0.0034417	1.9148	-25.7403	766.0424	-49.251	268.9598	59.3867	752.7859	-0.0592	0.0182	-0.0073	-0.0462	0.0165	0.9585
37.0537	-0.41554	0.5469	0.18822	-0.29795	-0.28675	0.88631	-27.1752	778.3635	-49.9827	272.8311	60.3537	763.021	-0.0592	0.0182	-0.0073	-0.0462	0.0165	0.9585
37.0746	-0.4236	0.26702	0.23829	-0.065879	-0.47221	0.24847	-28.1179	795.1941	-49.796	278.8206	60.359	776.9059	-0.0592	0.0182	-0.0073	-0.0462	0.0165	0.9585
37.0956	-0.44983	0.12346	0.2665	0.058183	-0.58071	-0.09563	-28.5406	814.6889	-48.5664	286.3196	59.2382	792.6276	-0.0592	0.0182	-0.0073	-0.0462	0.0165	0.9585
37.1165	-0.49133	0.055009	0.2801	0.11412	-0.63803	-0.25307	-28.4187	834.3352	-46.3203	294.3794	56.9559	807.8031	-0.0592	0.0182	-0.0073	-0.0462	0.0165	0.9585
37.1374	-0.54564	-0.0018952	0.28686	0.14098	-0.66824	-0.33105	-27.7257	851.4445	-43.2271	301.8981	53.6039	819.9632	-0.0592	0.0182	-0.0073	-0.0462	0.0165	0.9585
37.1584	-0.61183	-0.10798	0.29286	0.1742	-0.69046	-0.42463	-26.4428	863.4849	-39.5978	307.7655	49.4168	826.8765	-0.0592	0.0182	-0.0073	-0.0462	0.0165	0.9585
37.1793	-0.68724	-0.32225	0.3004	0.24498	-0.71372	-0.61428	-24.5879	868.3213	-35.8609	310.999	44.7727	826.7446	-0.0592	0.0182	-0.0073	-0.0462	0.0165	0.9585
37.2002	-0.76433	-0.69678	0.30725	0.37833	-0.73729	-0.9632	-22.1873	864.634	-32.4266	310.9476	40.0628	818.5343	-0.0592	0.0182	-0.0073	-0.0462	0.0165	0.9585
37.2211	-0.82825	-1.2665	0.31034	0.58934	-0.75367	-1.5161	-19.2383	852.3108	-29.5776	307.4663	35.5747	802.297	-0.0592	0.0182	-0.0073	-0.0462	0.0165	0.9585
37.2421	-0.85399	-2.034	0.3049	0.87939	-0.74792	-2.2855	-15.7425	832.5724	-27.4452	300.9646	31.4762	779.2767	-0.0592	0.0182	-0.0073	-0.0462	0.0165	0.9585
37.263	-0.80164	-2.9486	0.28142	1.2289	-0.69385	-3.2244	-11.7619	807.76	-26.033	292.3138	27.8459	751.7111	-0.0592	0.0182	-0.0073	-0.0462	0.0165	0.9585
37.2839	-0.61484	-3.8821	0.22574	1.5865	-0.55498	-4.1987	-7.4184	780.8738	-25.2501	282.6594	24.6976	722.3944	-0.0592	0.0182	-0.0073	-0.0462	0.0165	0.9585
37.3049	-0.21913	-4.598	0.11709	1.8566	-0.28453	-4.9585	-2.8472	755.0099	-24.9544	273.1972	21.9954	694.1595	-0.0592	0.0182	-0.0073	-0.0462	0.0165	0.9585
37.3258	0.46892	-4.7128	-0.069024	1.8883	0.17446	-5.1025	1.8109	732.7982	-25.0046	264.9497	19.693	669.3875	-0.0592	0.0182	-0.0073	-0.0462	0.0165	0.9585
37.3467	1.5186	-3.6576	-0.35612	1.4654	0.87561	-4.0586	6.3985	715.9553	-25.3117	258.5898	17.7805	649.6269	-0.0592	0.0182	-0.0073	-0.0462	0.0165	0.9585
37.3676	2.9597	-0.68905	-0.75803	0.3059	1.849	-1.0735	10.7352	705.0745	-25.8402	254.3618	16.2853	635.4249	-0.0592	0.0182	-0.0073	-0.0462	0.0165	0.9585
37.3886	4.7505	5.0608	-1.2719	-1.9198	3.077	4.7481	14.6202	699.6355	-26.5809	252.0878	15.255	626.3535	-0.0592	0.0182	-0.0073	-0.0462	0.0165	0.9585
37.4095	6.7228	14.47	-1.8668	-5.5422	4.461	14.3192	17.8591	698.1904	-27.5173	251.2439	14.7247	621.1789	-0.0592	0.0182	-0.0073	-0.0462	0.0165	0.9585
37.4304	8.5146	28.2127	-2.4605	-10.8103	5.7739	28.3596	20.2851	698.7005	-28.5899	251.0902	14.6818	618.1486	-0.0592	0.0182	-0.0073	-0.0462	0.0165	0.9585
37.4514	9.5357	46.4505	-2.8954	-17.7738	6.6243	47.0806	21.7821	698.927	-29.6947	250.8179	15.0573	615.3206	-0.0592	0.0182	-0.0073	-0.0462	0.0165	0.9585
37.4723	9.2315	68.7216	-2.9456	-26.2406	6.5638	70.0673	22.3495	696.8039	-30.713	249.6892	15.7289	610.8744	-0.0592	0.0182	-0.0073	-0.0462	0.0165	0.9585
37.4932	7.5812	94.2539	-2.3528	-35.8911	5.3033	96.5778	22.1258	690.7404	-31.5384	247.1443	16.5419	603.3778	-0.0592	0.0182	-0.0073	-0.0462	0.0165	0.9585
37.5141	4.8183	121.881	-0.85141	-46.2563	2.6392	125.4281	21.3377	679.7215	-32.0815	242.8343	17.333	591.8822	-0.0592	0.0182	-0.0073	-0.0462	0.0165	0.9585
37.5351	1.3011	150.0175	1.6093	-56.7311	-1.3509	154.9805	20.2319	663.3757	-32.2698	236.6418	17.9522	575.9969	-0.0592	0.0182	-0.0073	-0.0462	0.0165	0.9585
37.556	-2.4801	176.8057	4.6399	-66.6422	-6.0574	183.2606	19.0238	642.0717	-32.0783	228.7096	18.302	555.9807	-0.0592	0.0182	-0.0073	-0.0462	0.0165	0.9585
37.5769	-5.982	200.627	7.5638	-75.4281	-10.5459	208.5013	17.8848	616.9126	-31.5515	219.4347	18.3561	532.7315	-0.0592	0.0182	-0.0073	-0.0462	0.0165	0.9585
37.5979	-8.8993	221.0762	9.8946	-82.9674	-14.1833	230.2297	16.9536	589.5671	-30.7974	209.4092	18.1512	507.638	-0.0592	0.0182	-0.0073	-0.0462	0.0165	0.9585
37.6188	-11.2693	239.2101	11.4876	-89.6602	-16.8329	249.5504	16.3134	561.8331	-29.9349	199.2705	17.7516	482.207	-0.0592	0.0182	-0.0073	-0.0462	0.0165	0.9585
37.6397	-13.2862	256.7391	12.517	-96.1294	-18.753	268.2608	15.9649	535.1062	-29.0238	189.5173	17.2042	457.6182	-0.0592	0.0182	-0.0073	-0.0462	0.0165	0.9585
37.6606	-15.1272	275.1362	13.3345	-102.8992	-20.3728	287.8819	15.8341	510.0863	-28.0787	180.4044	16.5501	434.4847	-0.0592	0.0182	-0.0073	-0.0462	0.0165	0.9585
37.6816	-16.8862	295.2645	14.27	-110.2707	-22.0649	309.2508	15.805	486.7513	-27.1111	171.9308	15.8448	412.8272	-0.0592	0.0182	-0.0073	-0.0462	0.0165	0.9585
37.7025	-18.5289	317.3068	15.5078	-118.3051	-24.0041	332.4498	15.7726	464.5764	-26.1266	163.9171	15.1339	392.2469	-0.0592	0.0182	-0.0073	-0.0462	0.0165	0.9585
37.7234	-19.9111	340.9142	17.0558	-126.8798	-26.1438	356.9913	15.6787	442.8628	-25.1073	156.1234	14.4255	372.1971	-0.0592	0.0182	-0.0073	-0.0462	0.0165	0.9585
37.7444	-20.8728	365.4557	18.8096	-135.7739	-28.3197	382.1174	15.5221	420.9907	-24.0181	148.3364	13.6933	352.1937	-0.0592	0.0182	-0.0073	-0.0462	0.0165	0.9585
37.7653	-21.3004	390.2389	20.6373	-144.7378	-30.3521	407.0411	15.3394	398.545	-22.8353	140.4099	12.9057	331.9166	-0.0592	0.0182	-0.0073	-0.0462	0.0165	0.9585
37.7862	-21.1796	414.6971	22.4157	-153.5619	-32.1018	431.1455	15.173	375.3187	-21.5625	132.2632	12.0488	311.2132	-0.0592	0.0182	-0.0073	-0.0462	0.0165	0.9585
37.8071	-20.6017	438.5548	24.0732	-162.1375	-33.5181	454.1465	15.0363	351.2212	-20.2167	123.849	11.1276	290.0225	-0.0592	0.0182	-0.0073	-0.0462	0.0165	0.9585
37.8281	-19.7101	461.9287	25.6246	-170.4981	-34.6558	476.1617	14.8963	326.1593	-18.8149	115.1171	10.1651	268.2768	-0.0592	0.0182	-0.0073	-0.0462	0.0165	0.9585
37.849	-18.6177	485.2614	27.1519	-178.8024	-35.6304	497.6157	14.6755	300.0084	-17.3755	106.0077	9.2007	245.8829	-0.0592	0.0182	-0.0073	-0.0462	0.0165	0.9585
37.8699	-17.3483	509.0758	28.7494	-187.2483	-36.5444	518.9824	14.2739	272.679	-15.918	96.4754	8.2799	222.7732	-0.0592	0.0182	-0.0073	-0.0462	0.0165	0.9585
37.8909	-15.8434	533.7024	30.4809	-195.9718	-37.4434	540.5372	13.5917	244.2026	-14.4614	86.5195	7.4468	198.9737	-0.0592	0.0182	-0.0073	-0.0462	0.0165	0.9585
37.9118	-14.0261	559.0594	32.3726	-204.9604	-38.3298	562.1918	12.5626	214.8052	-13.0314	76.2109	6.7385	174.659	-0.0592	0.0182	-0.0073	-0.0462	0.0165	0.9585
37.9327	-11.839	584.6176	34.4153	-214.031	-39.1806	583.4818	11.1797	184.9473	-11.6647	65.706	6.1791	150.1725	-0.0592	0.0182	-0.0073	-0.0462	0.0165	0.9585
37.9536	-9.2988	609.5882	36.5508	-222.8958	-39.9515	603.7579	9.4965	155.3221	-10.3995	55.2465	5.7742	126.0305	-0.0592	0.0182	-0.0073	-0.0462	0.0165	0.9585
37.9746	-6.5443	633.2255	38.6947	-231.2679	-40.6119	622.4645	7.6235	126.757	-9.2563	45.1274	5.4988	102.8515	-0.0592	0.0182	-0.0073	-0.0462	0.0165	0.9585
37.9955	-3.8163	655.0469	40.7901	-238.9463	-41.1929	639.3246	5.7035	100.0671	-8.2167	35.6448	5.2911	81.2452	-0.0592	0.0182	-0.0073	-0.0462	0.0165	0.9585
38.0164	-1.4022	674.9396	42.8212	-245.8707	-41.7838	654.4165	3.8679	75.9423	-7.2209	27.0542	5.0655	61.732	-0.0592	0.0182	-0.0073	-0.0462	0.0165	0.9585
38.0374	0.4442	693.203	44.7942	-252.1445	-42.4869	668.1569	2.2161	54.8946	-6.1902	19.5502	4.7362	44.7057	-0.0592	0.0182	-0.0073	-0.0462	0.0165	0.9585
38.0583	1.5869	710.5471	46.7087	-258.043	-43.3577	681.2556	0.8291	37.2582	-5.0791	13.2623	4.2465	30.4327	-0.0592	0.0182	-0.0073	-0.0462	0.0165	0.9585
38.0792	2.0295	727.9588	48.5433	-263.9607	-44.3833	694.5999	-0.21583	23.1942	-3.9075	8.2532	3.5889	19.0457	-0.0592	0.0182	-0.0073	-0.0462	0.0165	0.9585
38.1001	1.8941	746.3979	50.2606	-270.2851	-45.4936	708.9997	-0.87439	12.679	-2.7584	4.5152	2.8169	10.5291	-0.0592	0.0182	-0.0073	-0.0462	0.0165	0.9585
38.1211	1.3684	766.4835	51.8167	-277.2656	-46.5858	724.9388	-1.1918	5.465	-1.7466	1.9568	2.0428	4.6851	-0.0592	0.0182	-0.0073	-0.0462	0.0165	0.9585
38.142	0.64872	788.2508	53.1758	-284.9152	-47.5591	742.3785	-1.2816	1.0485	-0.95199	0.39557	1.3733	1.1107	-0.0592	0.0182	-0.0073	-0.0462	0.0165	0.9585
38.1629	-0.089456	811.0372	54.317	-292.9696	-48.3365	760.6598	-1.2369	-1.2311	-0.38678	-0.40506	0.85419	-0.7287	-0.0592	0.0182	-0.0073	-0.0462	0.0165	0.9585
